<svg width="40" height="28" viewBox="0 0 40 28" fill="none" xmlns="http://www.w3.org/2000/svg">
<g clip-path="url(#clip0_284_1302)">
<path d="M39.1166 4.36722C38.8872 3.52311 38.4396 2.75356 37.8185 2.1352C37.1974 1.51684 36.4245 1.07125 35.5766 0.8428C32.4725 0 19.9797 0 19.9797 0C19.9797 0 7.48628 0.025511 4.38222 0.868311C3.53433 1.09678 2.76135 1.54239 2.14025 2.16078C1.51916 2.77916 1.07163 3.54875 0.842218 4.39289C-0.0966887 9.88369 -0.460908 18.2504 0.867999 23.5216C1.09743 24.3657 1.54498 25.1352 2.16607 25.7536C2.78716 26.3719 3.56013 26.8175 4.408 27.046C7.51206 27.8888 20.0052 27.8888 20.0052 27.8888C20.0052 27.8888 32.4982 27.8888 35.6021 27.046C36.45 26.8176 37.223 26.372 37.8441 25.7536C38.4652 25.1353 38.9128 24.3657 39.1422 23.5216C40.1325 18.023 40.4377 9.6614 39.1166 4.36722Z" fill="#FF0000"/>
<path d="M16.0039 19.9205L26.3677 13.9444L16.0039 7.96826V19.9205Z" fill="white"/>
</g>
<defs>
<clipPath id="clip0_284_1302">
<rect width="40" height="28" fill="white"/>
</clipPath>
</defs>
</svg>
